<?xml version="1.0" encoding="utf-8"?>
<svg width="500pt" height="500pt" viewBox="0 0 500 500" version="1.1" xmlns="http://www.w3.org/2000/svg">
  <g transform="matrix(1, 0, 0, 1, 10.326485, -0.126209)">
    <g id="#29aae1ff" style="" transform="matrix(1.468819, 0, 0, 1.468819, -127.479858, -98.975342)">
      <path fill="#29aae1" opacity="1.00" d=" M 233.39 72.58 C 237.56 70.94 241.47 68.28 245.92 67.60 C 266.47 70.03 287.03 72.36 307.63 74.51 C 318.49 76.23 329.57 76.37 340.33 78.71 C 340.45 79.69 340.57 80.67 340.67 81.66 C 340.19 81.98 339.22 82.61 338.74 82.93 C 338.25 83.18 337.28 83.69 336.80 83.95 C 327.56 87.82 318.44 91.99 309.29 96.07 C 307.66 96.88 305.78 97.46 304.60 98.92 C 304.43 103.65 305.20 108.59 303.23 113.06 C 304.60 108.47 304.57 103.64 304.26 98.90 C 291.47 103.94 279.08 109.95 266.50 115.47 C 260.59 117.91 254.81 122.26 248.07 121.01 C 232.97 118.98 217.80 117.50 202.71 115.43 C 188.78 113.69 174.84 112.12 160.92 110.37 C 159.69 109.86 156.74 110.08 157.31 108.03 C 156.76 106.21 159.20 105.91 160.24 105.08 C 184.61 94.22 208.95 83.29 233.39 72.58 Z"/>
    </g>
    <g id="#f69920ff" style="" transform="matrix(1.468819, 0, 0, 1.468819, -127.479858, -98.975342)">
      <path fill="#f69920" opacity="1.00" d=" M 336.80 83.95 C 337.28 83.69 338.25 83.18 338.74 82.93 C 339.71 89.57 339.17 96.31 339.27 103.00 C 339.10 107.67 339.88 112.42 338.76 117.02 C 340.54 119.08 342.22 121.41 341.54 124.30 C 340.09 124.59 338.68 125.26 337.18 125.17 C 335.82 124.53 335.09 123.14 334.16 122.05 C 335.26 120.35 336.43 118.69 337.64 117.07 C 336.73 112.43 336.51 107.68 337.17 102.99 C 337.89 96.63 336.43 90.31 336.80 83.95 Z"/>
    </g>
    <g id="#035994ff" style="" transform="matrix(1.468819, 0, 0, 1.468819, -127.479858, -98.975342)">
      <path fill="#035994" opacity="1.00" d=" M 266.50 115.47 C 279.08 109.95 291.47 103.94 304.26 98.90 C 304.57 103.64 304.60 108.47 303.23 113.06 C 298.53 123.33 289.01 130.63 278.84 135.02 C 268.88 139.52 257.96 142.10 247.00 141.60 C 234.41 142.09 221.28 138.70 211.46 130.57 C 206.78 126.80 203.83 121.29 202.71 115.43 C 217.80 117.50 232.97 118.98 248.07 121.01 C 254.81 122.26 260.59 117.91 266.50 115.47 Z"/>
    </g>
    <g id="#0071bdff" style="" transform="matrix(1.468819, 0, 0, 1.468819, -127.479858, -98.975342)">
      <path fill="#0071bd" opacity="1.00" d=" M 109.39 144.81 C 131.25 144.25 153.13 144.74 175.00 144.64 C 198.03 144.17 221.15 150.26 240.92 162.11 C 243.90 163.92 246.90 165.71 249.98 167.36 C 259.43 161.87 268.73 155.87 279.13 152.28 C 285.95 149.88 292.86 147.59 300.04 146.58 C 307.34 145.78 314.62 144.35 322.00 144.63 C 344.85 144.76 367.71 144.30 390.54 144.84 C 390.45 225.07 390.49 305.31 390.54 385.54 C 365.69 385.52 340.84 385.56 315.99 385.55 C 295.03 386.63 274.17 392.90 256.48 404.32 C 254.34 405.55 252.28 407.05 249.89 407.75 C 245.53 406.35 241.98 403.24 237.96 401.12 C 219.19 390.54 197.54 385.00 176.01 385.55 C 153.81 385.56 131.62 385.50 109.43 385.54 C 109.48 305.30 109.56 225.05 109.39 144.81 M 203.40 226.58 C 197.93 228.95 198.38 238.14 204.19 239.87 C 209.64 242.43 216.63 235.84 213.67 230.35 C 212.24 226.29 207.13 224.60 203.40 226.58 M 289.47 226.58 C 284.56 228.79 284.10 236.43 288.77 239.18 C 292.83 242.03 298.83 239.54 300.09 234.86 C 301.73 229.15 294.68 223.38 289.47 226.58 M 165.54 265.47 C 165.17 298.30 186.38 329.93 216.59 342.59 C 232.30 349.45 250.14 351.13 266.91 347.72 C 287.93 343.49 306.95 330.75 319.21 313.22 C 328.84 299.35 334.41 282.48 334.22 265.55 C 322.52 265.41 310.80 265.21 299.11 265.65 C 299.11 277.63 294.41 289.48 286.20 298.20 C 276.98 308.21 263.53 313.91 250.02 314.42 C 237.63 314.01 225.21 309.40 216.07 300.91 C 206.32 291.83 200.94 278.69 200.42 265.47 C 188.79 265.37 177.16 265.41 165.54 265.47 Z"/>
    </g>
  </g>
</svg>