<svg width="158" height="165" viewBox="0 0 158 165" fill="none" xmlns="http://www.w3.org/2000/svg">
<path fill-rule="evenodd" clip-rule="evenodd" d="M36.3591 21.128C46.5416 13.9307 54.2657 1.04987 66.7008 0.0597394C79.2441 -0.939015 88.9484 10.8297 100.419 16.0273C110.631 20.654 121.669 22.8237 130.922 29.1585C141.05 36.0936 153.408 42.8807 156.85 54.6647C160.325 66.5578 149.739 78.1037 148.831 90.4545C147.911 102.96 157.271 116.395 151.492 127.514C145.775 138.516 130.495 139.79 119.873 146.175C109.733 152.271 101.688 162.697 89.9902 164.485C78.277 166.276 66.9684 160.257 55.9171 155.954C45.3288 151.831 33.902 148.288 26.4156 139.732C19.0686 131.335 18.9965 119.124 14.6868 108.833C10.2336 98.1996 1.77087 89.2315 0.47079 77.7801C-0.909162 65.6251 0.579694 52.4967 7.119 42.1739C13.6289 31.8976 26.4282 28.1475 36.3591 21.128Z" fill="url(#paint0_linear_165_324)"/>
<defs>
<linearGradient id="paint0_linear_165_324" x1="37.9974" y1="16.0938" x2="125.748" y2="147.486" gradientUnits="userSpaceOnUse">
<stop offset="0.298077" stop-color="#0071BC"/>
<stop offset="1" stop-color="#003456"/>
</linearGradient>
</defs>
</svg>
